<?xml version="1.0" standalone="no"?>
<!DOCTYPE svg PUBLIC "-//W3C//DTD SVG 20010904//EN"
 "http://www.w3.org/TR/2001/REC-SVG-20010904/DTD/svg10.dtd">
<svg version="1.0" xmlns="http://www.w3.org/2000/svg"
 width="548.000000pt" height="331.000000pt" viewBox="0 0 548.000000 331.000000"
 preserveAspectRatio="xMidYMid meet">

<g transform="translate(0.000000,331.000000) scale(0.100000,-0.100000)"
fill="#000000" stroke="none">
<path d="M0 1655 l0 -1655 2738 2 2737 3 0 1650 0 1650 -2737 3 -2738 2 0
-1655z m3468 447 c-1 -4 -95 -180 -208 -390 l-205 -381 -47 -1 c-27 0 -48 2
-48 4 0 2 49 93 108 203 59 109 153 282 208 385 l99 188 48 0 c27 0 47 -4 45
-8z m-1178 -134 c62 -31 90 -77 90 -144 0 -29 -5 -64 -11 -78 -10 -21 -8 -29
14 -56 38 -44 52 -104 37 -155 -28 -95 -76 -124 -222 -132 -111 -7 -114 -3
-80 67 17 34 19 35 82 38 36 1 74 4 86 7 26 6 46 48 38 81 -10 41 -51 54 -169
54 l-105 0 0 -126 0 -125 -47 3 -48 3 -3 293 -2 292 148 0 c133 0 152 -2 192
-22z m471 10 c53 -18 87 -45 116 -96 51 -87 29 -203 -52 -268 l-35 -29 55 -82
c30 -45 55 -87 55 -93 0 -7 -21 -10 -57 -8 l-57 3 -51 82 c-46 75 -53 82 -82
83 -38 0 -38 1 -17 57 15 37 21 43 46 43 72 0 123 49 121 116 -2 66 -59 104
-158 104 l-65 0 0 -245 0 -245 -50 0 -50 0 0 295 0 295 124 0 c67 0 138 -5
157 -12z m-873 -124 l-3 -56 -88 -33 c-49 -19 -91 -36 -93 -38 -4 -4 39 -22
159 -66 25 -10 27 -15 27 -67 0 -49 -2 -55 -17 -50 -10 4 -78 32 -151 64
l-132 57 2 59 3 60 140 62 c77 34 144 63 148 63 4 1 7 -24 5 -55z m1803 -7
l144 -63 3 -60 3 -59 -133 -57 c-73 -31 -141 -60 -151 -64 -16 -6 -18 -1 -15
51 l3 58 88 33 c49 18 91 34 93 37 3 2 -37 20 -88 39 l-93 35 -3 57 c-2 31 -1
56 1 56 3 0 69 -28 148 -63z"/>
<path d="M2126 1960 c-31 -10 -86 -57 -86 -74 0 -6 -6 -23 -14 -38 -13 -24
-12 -28 15 -54 l29 -28 30 29 c32 31 39 51 15 41 -21 -8 -19 17 3 36 28 25 55
29 87 12 28 -15 31 -14 44 6 13 20 15 20 35 3 20 -18 20 -18 5 7 -31 48 -108
76 -163 60z"/>
<path d="M2237 1832 c-31 -32 -34 -44 -9 -35 16 7 16 5 1 -17 -22 -34 -62 -47
-100 -33 -26 10 -31 9 -42 -7 -10 -18 -13 -18 -29 -3 -10 9 -18 12 -18 6 0
-12 38 -47 67 -62 61 -31 149 3 181 71 9 20 23 38 31 40 10 2 6 12 -13 36 -15
17 -31 32 -35 32 -4 0 -19 -13 -34 -28z"/>
</g>
</svg>
