<?xml version="1.0" standalone="no"?>
<!DOCTYPE svg PUBLIC "-//W3C//DTD SVG 20010904//EN"
 "http://www.w3.org/TR/2001/REC-SVG-20010904/DTD/svg10.dtd">
<svg version="1.0" xmlns="http://www.w3.org/2000/svg"
 width="305.000000pt" height="111.000000pt" viewBox="0 0 305.000000 111.000000"
 preserveAspectRatio="xMidYMid meet">

<g transform="translate(0.000000,111.000000) scale(0.100000,-0.100000)"
fill="#000000" stroke="none">
<path d="M0 555 l0 -555 1525 0 1525 0 0 555 0 555 -1525 0 -1525 0 0 -555z
m1073 339 c91 -12 153 -90 144 -180 -5 -44 -1 -62 20 -104 50 -101 13 -228
-80 -271 -35 -15 -66 -19 -180 -19 -133 0 -139 1 -162 25 l-25 24 0 233 c0
128 3 243 6 254 3 12 14 26 25 30 25 12 190 17 252 8z m696 -27 c107 -71 101
-232 -11 -290 l-38 -19 26 -33 c14 -19 41 -45 60 -60 32 -25 64 -71 64 -95 0
-21 -41 -50 -70 -50 -24 0 -47 16 -113 78 -45 42 -84 80 -87 83 -3 3 -15 11
-27 18 -23 12 -23 11 -23 -65 0 -58 -4 -82 -17 -96 -21 -23 -65 -23 -94 1
l-24 19 0 252 c0 313 -14 290 179 287 127 -2 134 -3 175 -30z m465 8 c27 -28
27 -53 -3 -147 -16 -51 -51 -159 -76 -241 -26 -81 -53 -154 -62 -162 -8 -8
-26 -15 -39 -15 -28 0 -74 41 -74 65 0 26 140 467 156 493 17 26 74 31 98 7z
m-1587 -133 c36 -48 23 -83 -42 -107 -25 -10 -45 -20 -45 -24 0 -3 20 -15 43
-27 55 -28 75 -65 53 -99 -9 -14 -28 -28 -42 -31 -33 -8 -143 28 -201 67 -26
17 -50 25 -62 22 -14 -3 -30 4 -51 25 -58 59 -34 86 130 145 69 25 132 47 140
50 23 9 62 -2 77 -21z m1891 -18 c70 -25 139 -52 154 -60 53 -27 50 -95 -5
-113 -19 -7 -41 -9 -49 -6 -10 4 -22 -2 -31 -15 -13 -18 -161 -79 -195 -80 -8
0 -27 9 -43 21 -52 37 -34 93 35 116 37 11 44 29 16 38 -35 11 -80 56 -80 79
0 33 27 62 63 65 4 1 65 -20 135 -45z"/>
<path d="M930 741 c0 -32 18 -41 82 -41 67 0 86 20 50 53 -13 12 -37 17 -75
17 -56 0 -57 0 -57 -29z"/>
<path d="M930 510 l0 -60 78 0 c88 0 112 14 112 64 0 46 -20 56 -109 56 l-81
0 0 -60z"/>
<path d="M1552 733 c3 -35 6 -39 40 -47 43 -11 96 1 112 26 8 13 6 22 -8 37
-16 17 -31 21 -83 21 l-64 0 3 -37z"/>
</g>
</svg>
