<svg width="490" height="104" viewBox="0 0 490 104" fill="none" xmlns="http://www.w3.org/2000/svg">
<g clip-path="url(#clip0_316_547)">
<path d="M26.6667 11.3335H5.33341C3.86066 11.3335 2.66675 12.5274 2.66675 14.0002V30.0002C2.66675 31.4729 3.86066 32.6668 5.33341 32.6668H26.6667C28.1395 32.6668 29.3334 31.4729 29.3334 30.0002V14.0002C29.3334 12.5274 28.1395 11.3335 26.6667 11.3335Z" stroke="#4B5563" stroke-width="2" stroke-linecap="round" stroke-linejoin="round"/>
<path d="M29.3334 15.3335L17.3734 22.9335C16.9618 23.1914 16.4858 23.3282 16.0001 23.3282C15.5143 23.3282 15.0384 23.1914 14.6267 22.9335L2.66675 15.3335" stroke="#4B5563" stroke-width="2" stroke-linecap="round" stroke-linejoin="round"/>
<path d="M58.7088 28.8381L58.696 23.2514H59.4375L66.4943 15.3636H71.902L63.2216 25.0284H62.2628L58.7088 28.8381ZM54.49 35V8.81818H59.1179V35H54.49ZM66.8139 35L60.4218 26.0639L63.5412 22.804L72.3494 35H66.8139ZM78.894 23.4943V35H74.2661V8.81818H78.7917V18.7003H79.0218C79.482 17.5923 80.1937 16.7187 81.1567 16.0795C82.1283 15.4318 83.3641 15.108 84.8641 15.108C86.2278 15.108 87.4167 15.3935 88.4309 15.9645C89.4451 16.5355 90.2292 17.3707 90.7832 18.4702C91.3457 19.5696 91.6269 20.9119 91.6269 22.4972V35H86.9991V23.2131C86.9991 21.892 86.6582 20.8651 85.9763 20.1321C85.3031 19.3906 84.357 19.0199 83.1383 19.0199C82.3201 19.0199 81.5871 19.1989 80.9394 19.5568C80.3002 19.9062 79.7974 20.4134 79.4309 21.0781C79.0729 21.7429 78.894 22.5483 78.894 23.4943ZM104.19 35.3835C102.272 35.3835 100.61 34.9616 99.2038 34.1179C97.7975 33.2741 96.7066 32.0937 95.9311 30.5767C95.164 29.0597 94.7805 27.2869 94.7805 25.2585C94.7805 23.2301 95.164 21.4531 95.9311 19.9276C96.7066 18.402 97.7975 17.2173 99.2038 16.3736C100.61 15.5298 102.272 15.108 104.19 15.108C106.107 15.108 107.769 15.5298 109.175 16.3736C110.582 17.2173 111.668 18.402 112.435 19.9276C113.211 21.4531 113.599 23.2301 113.599 25.2585C113.599 27.2869 113.211 29.0597 112.435 30.5767C111.668 32.0937 110.582 33.2741 109.175 34.1179C107.769 34.9616 106.107 35.3835 104.19 35.3835ZM104.215 31.6761C105.255 31.6761 106.124 31.3906 106.823 30.8196C107.522 30.2401 108.042 29.4645 108.383 28.4929C108.732 27.5213 108.907 26.4389 108.907 25.2457C108.907 24.044 108.732 22.9574 108.383 21.9858C108.042 21.0057 107.522 20.2259 106.823 19.6463C106.124 19.0668 105.255 18.777 104.215 18.777C103.15 18.777 102.263 19.0668 101.556 19.6463C100.857 20.2259 100.333 21.0057 99.9836 21.9858C99.6427 22.9574 99.4723 24.044 99.4723 25.2457C99.4723 26.4389 99.6427 27.5213 99.9836 28.4929C100.333 29.4645 100.857 30.2401 101.556 30.8196C102.263 31.3906 103.15 31.6761 104.215 31.6761ZM124.094 35.3452C122.551 35.3452 121.17 34.9489 119.951 34.1562C118.733 33.3636 117.77 32.2131 117.062 30.7045C116.355 29.196 116.001 27.3636 116.001 25.2074C116.001 23.0256 116.359 21.1847 117.075 19.6847C117.799 18.1761 118.775 17.0384 120.003 16.2713C121.23 15.4957 122.598 15.108 124.106 15.108C125.257 15.108 126.203 15.304 126.944 15.696C127.686 16.0795 128.274 16.544 128.709 17.0895C129.143 17.6264 129.48 18.1335 129.719 18.6108H129.91V8.81818H134.551V35H130V31.9062H129.719C129.48 32.3835 129.135 32.8906 128.683 33.4276C128.231 33.956 127.635 34.4077 126.893 34.7827C126.152 35.1577 125.219 35.3452 124.094 35.3452ZM125.385 31.5483C126.365 31.5483 127.2 31.2841 127.89 30.7557C128.581 30.2187 129.105 29.473 129.463 28.5185C129.821 27.5639 130 26.4517 130 25.1818C130 23.9119 129.821 22.8082 129.463 21.8707C129.113 20.9332 128.594 20.2045 127.903 19.6847C127.221 19.1648 126.382 18.9048 125.385 18.9048C124.353 18.9048 123.493 19.1733 122.802 19.7102C122.112 20.2472 121.592 20.9886 121.243 21.9347C120.893 22.8807 120.719 23.9631 120.719 25.1818C120.719 26.4091 120.893 27.5043 121.243 28.4673C121.601 29.4219 122.125 30.1761 122.815 30.7301C123.514 31.2756 124.371 31.5483 125.385 31.5483ZM138.762 35V15.3636H143.39V35H138.762ZM141.089 12.5767C140.356 12.5767 139.725 12.3338 139.197 11.848C138.669 11.3537 138.404 10.7614 138.404 10.071C138.404 9.37216 138.669 8.77983 139.197 8.29403C139.725 7.79971 140.356 7.55256 141.089 7.55256C141.831 7.55256 142.461 7.79971 142.981 8.29403C143.51 8.77983 143.774 9.37216 143.774 10.071C143.774 10.7614 143.51 11.3537 142.981 11.848C142.461 12.3338 141.831 12.5767 141.089 12.5767ZM156.122 35.3835C154.154 35.3835 152.453 34.9744 151.021 34.1562C149.598 33.3295 148.503 32.1619 147.736 30.6534C146.969 29.1364 146.585 27.3509 146.585 25.2969C146.585 23.277 146.969 21.5043 147.736 19.9787C148.511 18.4446 149.594 17.2514 150.983 16.3991C152.372 15.5384 154.004 15.108 155.879 15.108C157.09 15.108 158.232 15.304 159.306 15.696C160.388 16.0795 161.342 16.6761 162.169 17.4858C163.004 18.2955 163.661 19.3267 164.138 20.5795C164.615 21.8239 164.854 23.3068 164.854 25.0284V26.4474H148.759V23.3281H160.418C160.409 22.4418 160.217 21.6534 159.842 20.9631C159.467 20.2642 158.943 19.7145 158.27 19.3139C157.605 18.9134 156.83 18.7131 155.943 18.7131C154.997 18.7131 154.166 18.9432 153.45 19.4034C152.734 19.8551 152.176 20.4517 151.776 21.1932C151.384 21.9261 151.183 22.7315 151.175 23.6094V26.3324C151.175 27.4744 151.384 28.4545 151.801 29.2727C152.219 30.0824 152.803 30.7045 153.553 31.1392C154.303 31.5653 155.181 31.7784 156.186 31.7784C156.859 31.7784 157.469 31.6847 158.014 31.4972C158.56 31.3011 159.033 31.0156 159.433 30.6406C159.834 30.2656 160.136 29.8011 160.341 29.2472L164.662 29.733C164.389 30.875 163.869 31.8722 163.102 32.7244C162.344 33.5682 161.372 34.2244 160.188 34.6932C159.003 35.1534 157.648 35.3835 156.122 35.3835ZM185.026 15.3636L178.033 35H172.92L165.927 15.3636H170.861L175.374 29.9503H175.579L180.104 15.3636H185.026ZM187.509 35V15.3636H191.932V18.7003H192.162C192.571 17.5753 193.249 16.6974 194.195 16.0668C195.141 15.4276 196.27 15.108 197.582 15.108C198.912 15.108 200.033 15.4318 200.945 16.0795C201.865 16.7187 202.513 17.5923 202.888 18.7003H203.092C203.527 17.6094 204.26 16.7401 205.291 16.0923C206.331 15.4361 207.563 15.108 208.986 15.108C210.793 15.108 212.267 15.679 213.409 16.821C214.551 17.9631 215.122 19.6293 215.122 21.8196V35H210.482V22.5355C210.482 21.3168 210.158 20.4261 209.51 19.8636C208.862 19.2926 208.07 19.0071 207.132 19.0071C206.016 19.0071 205.142 19.3565 204.511 20.0554C203.889 20.7457 203.578 21.6449 203.578 22.7528V35H199.04V22.3438C199.04 21.3295 198.733 20.5199 198.119 19.9148C197.514 19.3097 196.722 19.0071 195.742 19.0071C195.077 19.0071 194.472 19.1776 193.926 19.5185C193.381 19.8509 192.946 20.3239 192.622 20.9375C192.298 21.5426 192.136 22.25 192.136 23.0597V35H187.509ZM235.55 42.3381C232.866 42.3381 230.479 41.9716 228.391 41.2386C226.312 40.5142 224.556 39.4446 223.124 38.0298C221.692 36.6236 220.606 34.9062 219.864 32.8778C219.123 30.8494 218.748 28.5312 218.739 25.9233C218.748 23.375 219.127 21.0781 219.877 19.0327C220.627 16.9787 221.722 15.223 223.163 13.7656C224.603 12.2997 226.363 11.1747 228.442 10.3906C230.522 9.60653 232.887 9.21449 235.538 9.21449C238.035 9.21449 240.246 9.59375 242.173 10.3523C244.107 11.1108 245.739 12.1676 247.069 13.5227C248.407 14.8693 249.417 16.446 250.099 18.2528C250.789 20.0511 251.134 22.0028 251.134 24.108C251.134 25.5653 251.023 26.946 250.802 28.25C250.58 29.5455 250.201 30.696 249.664 31.7017C249.136 32.7074 248.415 33.5085 247.503 34.1051C246.592 34.6932 245.449 35.0128 244.077 35.0639C243.217 35.1065 242.462 35.0256 241.815 34.821C241.167 34.6165 240.643 34.2969 240.242 33.8622C239.85 33.419 239.603 32.8778 239.501 32.2386H239.347C239.151 32.75 238.78 33.2187 238.235 33.6449C237.698 34.0625 237.033 34.3906 236.241 34.6293C235.448 34.8594 234.566 34.9531 233.594 34.9105C232.555 34.8594 231.592 34.6207 230.705 34.1946C229.827 33.7599 229.06 33.1548 228.404 32.3793C227.756 31.5952 227.253 30.6491 226.896 29.5412C226.538 28.4332 226.359 27.1761 226.359 25.7699C226.359 24.3977 226.555 23.1875 226.947 22.1392C227.339 21.0909 227.863 20.196 228.519 19.4545C229.184 18.7131 229.934 18.1335 230.769 17.7159C231.604 17.2898 232.465 17.017 233.351 16.8977C234.272 16.7699 235.137 16.7827 235.947 16.9361C236.756 17.0895 237.43 17.3239 237.967 17.6392C238.512 17.9545 238.853 18.2997 238.989 18.6747H239.168V17.2429H242.735V29.4134C242.744 30.0526 242.897 30.5682 243.195 30.9602C243.502 31.3523 243.928 31.5483 244.474 31.5483C245.155 31.5483 245.705 31.2798 246.123 30.7429C246.549 30.1974 246.856 29.3622 247.043 28.2372C247.239 27.1037 247.333 25.6548 247.324 23.8906C247.333 22.4418 247.141 21.1293 246.749 19.9531C246.366 18.7685 245.82 17.7287 245.113 16.8338C244.405 15.9389 243.557 15.1932 242.569 14.5966C241.589 13.9915 240.498 13.5355 239.296 13.2287C238.094 12.9219 236.812 12.7685 235.448 12.7685C233.36 12.7685 231.523 13.0881 229.938 13.7273C228.353 14.358 227.023 15.2571 225.949 16.4247C224.884 17.5923 224.079 18.9773 223.533 20.5795C222.996 22.1733 222.728 23.9375 222.728 25.8722C222.728 27.9432 223.009 29.7798 223.572 31.3821C224.143 32.9759 224.978 34.3182 226.077 35.4091C227.177 36.5 228.536 37.3267 230.155 37.8892C231.783 38.4517 233.654 38.733 235.768 38.733C236.739 38.733 237.69 38.6563 238.619 38.5028C239.548 38.3494 240.383 38.1705 241.124 37.9659C241.866 37.7614 242.437 37.5824 242.837 37.429L243.924 40.6761C243.396 40.9489 242.68 41.2131 241.776 41.4688C240.881 41.7244 239.893 41.9332 238.81 42.0952C237.736 42.2571 236.65 42.3381 235.55 42.3381ZM234.655 31.2415C235.738 31.2415 236.603 31.0327 237.251 30.6151C237.898 30.1889 238.363 29.5582 238.644 28.723C238.925 27.8878 239.062 26.848 239.053 25.6037C239.053 24.4446 238.908 23.4943 238.619 22.7528C238.329 22.0114 237.864 21.4616 237.225 21.1037C236.586 20.7457 235.738 20.5668 234.681 20.5668C233.726 20.5668 232.913 20.7841 232.239 21.2188C231.574 21.6534 231.063 22.2543 230.705 23.0213C230.356 23.7798 230.181 24.6449 230.181 25.6165C230.181 26.5881 230.322 27.5043 230.603 28.3651C230.893 29.2173 231.361 29.9119 232.009 30.4489C232.665 30.9773 233.548 31.2415 234.655 31.2415ZM262.882 42.7727C261.22 42.7727 259.792 42.5469 258.599 42.0952C257.406 41.652 256.447 41.0554 255.723 40.3054C254.998 39.5554 254.495 38.7244 254.214 37.8125L258.382 36.8026C258.569 37.1861 258.842 37.5653 259.2 37.9403C259.558 38.3239 260.04 38.6392 260.645 38.8864C261.258 39.142 262.03 39.2699 262.959 39.2699C264.271 39.2699 265.358 38.9503 266.218 38.3111C267.079 37.6804 267.51 36.6406 267.51 35.1918V31.4716H267.28C267.041 31.9489 266.691 32.4389 266.231 32.9418C265.78 33.4446 265.179 33.8665 264.429 34.2074C263.687 34.5483 262.754 34.7188 261.629 34.7188C260.12 34.7188 258.753 34.3651 257.525 33.6577C256.307 32.9418 255.335 31.8764 254.611 30.4616C253.895 29.0384 253.537 27.2571 253.537 25.1179C253.537 22.9616 253.895 21.142 254.611 19.6591C255.335 18.1676 256.311 17.0384 257.538 16.2713C258.765 15.4957 260.133 15.108 261.642 15.108C262.792 15.108 263.738 15.304 264.48 15.696C265.23 16.0795 265.826 16.544 266.27 17.0895C266.713 17.6264 267.049 18.1335 267.28 18.6108H267.535V15.3636H272.099V35.3196C272.099 36.9986 271.699 38.3878 270.897 39.4872C270.096 40.5866 269.001 41.4091 267.612 41.9545C266.223 42.5 264.646 42.7727 262.882 42.7727ZM262.92 31.0881C263.9 31.0881 264.736 30.8494 265.426 30.3722C266.116 29.8949 266.64 29.2088 266.998 28.3139C267.356 27.419 267.535 26.3452 267.535 25.0923C267.535 23.8565 267.356 22.7741 266.998 21.8452C266.649 20.9162 266.129 20.196 265.439 19.6847C264.757 19.1648 263.917 18.9048 262.92 18.9048C261.889 18.9048 261.028 19.1733 260.338 19.7102C259.647 20.2472 259.128 20.9844 258.778 21.9219C258.429 22.8509 258.254 23.9077 258.254 25.0923C258.254 26.294 258.429 27.3466 258.778 28.25C259.136 29.1449 259.66 29.8437 260.351 30.3466C261.049 30.8409 261.906 31.0881 262.92 31.0881ZM276.122 35V15.3636H280.545V18.7003H280.775C281.185 17.5753 281.862 16.6974 282.808 16.0668C283.754 15.4276 284.883 15.108 286.196 15.108C287.525 15.108 288.646 15.4318 289.558 16.0795C290.479 16.7187 291.126 17.5923 291.501 18.7003H291.706C292.141 17.6094 292.873 16.7401 293.905 16.0923C294.945 15.4361 296.176 15.108 297.599 15.108C299.406 15.108 300.881 15.679 302.023 16.821C303.165 17.9631 303.736 19.6293 303.736 21.8196V35H299.095V22.5355C299.095 21.3168 298.771 20.4261 298.123 19.8636C297.476 19.2926 296.683 19.0071 295.746 19.0071C294.629 19.0071 293.756 19.3565 293.125 20.0554C292.503 20.7457 292.192 21.6449 292.192 22.7528V35H287.653V22.3438C287.653 21.3295 287.346 20.5199 286.733 19.9148C286.128 19.3097 285.335 19.0071 284.355 19.0071C283.69 19.0071 283.085 19.1776 282.54 19.5185C281.994 19.8509 281.56 20.3239 281.236 20.9375C280.912 21.5426 280.75 22.25 280.75 23.0597V35H276.122ZM313.361 35.3963C312.117 35.3963 310.996 35.1747 309.999 34.7315C309.01 34.2798 308.226 33.6151 307.647 32.7372C307.076 31.8594 306.79 30.777 306.79 29.4901C306.79 28.3821 306.995 27.4659 307.404 26.7415C307.813 26.017 308.371 25.4375 309.079 25.0028C309.786 24.5682 310.583 24.2401 311.469 24.0185C312.364 23.7884 313.289 23.6222 314.243 23.5199C315.394 23.4006 316.327 23.294 317.043 23.2003C317.759 23.098 318.279 22.9446 318.603 22.7401C318.935 22.527 319.101 22.1989 319.101 21.7557V21.679C319.101 20.7159 318.816 19.9702 318.245 19.4418C317.674 18.9134 316.851 18.6491 315.777 18.6491C314.644 18.6491 313.745 18.8963 313.08 19.3906C312.424 19.8849 311.981 20.4687 311.75 21.142L307.429 20.5284C307.77 19.3352 308.333 18.3381 309.117 17.5369C309.901 16.7273 310.86 16.1222 311.993 15.7216C313.127 15.3125 314.38 15.108 315.752 15.108C316.698 15.108 317.64 15.2188 318.577 15.4403C319.515 15.6619 320.371 16.0284 321.147 16.5398C321.922 17.0426 322.544 17.7287 323.013 18.598C323.49 19.4673 323.729 20.554 323.729 21.858V35H319.28V32.3026H319.127C318.846 32.848 318.449 33.3594 317.938 33.8366C317.435 34.3054 316.8 34.6847 316.033 34.9744C315.275 35.2557 314.384 35.3963 313.361 35.3963ZM314.563 31.9957C315.492 31.9957 316.297 31.8125 316.979 31.446C317.661 31.071 318.185 30.5767 318.552 29.9631C318.927 29.3494 319.114 28.6804 319.114 27.956V25.642C318.969 25.7614 318.722 25.8722 318.373 25.9744C318.032 26.0767 317.648 26.1662 317.222 26.2429C316.796 26.3196 316.374 26.3878 315.956 26.4474C315.539 26.5071 315.177 26.5582 314.87 26.6009C314.179 26.6946 313.562 26.848 313.016 27.0611C312.471 27.2741 312.04 27.5724 311.725 27.956C311.41 28.331 311.252 28.8168 311.252 29.4134C311.252 30.2656 311.563 30.9091 312.185 31.3438C312.807 31.7784 313.6 31.9957 314.563 31.9957ZM327.663 35V15.3636H332.29V35H327.663ZM329.989 12.5767C329.256 12.5767 328.626 12.3338 328.097 11.848C327.569 11.3537 327.305 10.7614 327.305 10.071C327.305 9.37216 327.569 8.77983 328.097 8.29403C328.626 7.79971 329.256 7.55256 329.989 7.55256C330.731 7.55256 331.361 7.79971 331.881 8.29403C332.41 8.77983 332.674 9.37216 332.674 10.071C332.674 10.7614 332.41 11.3537 331.881 11.848C331.361 12.3338 330.731 12.5767 329.989 12.5767ZM340.957 8.81818V35H336.329V8.81818H340.957ZM347.847 35.2812C347.071 35.2812 346.406 35.0085 345.853 34.4631C345.299 33.9176 345.026 33.2528 345.034 32.4688C345.026 31.7017 345.299 31.0455 345.853 30.5C346.406 29.9545 347.071 29.6818 347.847 29.6818C348.597 29.6818 349.249 29.9545 349.803 30.5C350.365 31.0455 350.651 31.7017 350.659 32.4688C350.651 32.9886 350.514 33.4616 350.25 33.8878C349.995 34.3139 349.654 34.6548 349.228 34.9105C348.81 35.1577 348.35 35.2812 347.847 35.2812ZM363.283 35.3835C361.322 35.3835 359.639 34.9531 358.233 34.0923C356.835 33.2315 355.757 32.0426 354.999 30.5256C354.249 29 353.874 27.2443 353.874 25.2585C353.874 23.2642 354.257 21.5043 355.024 19.9787C355.791 18.4446 356.874 17.2514 358.271 16.3991C359.678 15.5384 361.34 15.108 363.257 15.108C364.851 15.108 366.261 15.402 367.489 15.9901C368.724 16.5696 369.709 17.392 370.442 18.4574C371.175 19.5142 371.592 20.75 371.695 22.1648H367.271C367.092 21.2187 366.666 20.4304 365.993 19.7997C365.328 19.1605 364.438 18.8409 363.321 18.8409C362.375 18.8409 361.544 19.0966 360.828 19.608C360.112 20.1108 359.554 20.8352 359.153 21.7812C358.761 22.7273 358.565 23.8608 358.565 25.1818C358.565 26.5199 358.761 27.6705 359.153 28.6335C359.546 29.5881 360.095 30.3253 360.803 30.8452C361.519 31.3565 362.358 31.6122 363.321 31.6122C364.003 31.6122 364.612 31.4844 365.149 31.2287C365.695 30.9645 366.151 30.5852 366.517 30.0909C366.884 29.5966 367.135 28.9957 367.271 28.2884H371.695C371.584 29.6776 371.175 30.9091 370.467 31.983C369.76 33.0483 368.797 33.8835 367.578 34.4886C366.359 35.0852 364.928 35.3835 363.283 35.3835ZM383.34 35.3835C381.422 35.3835 379.761 34.9616 378.354 34.1179C376.948 33.2741 375.857 32.0937 375.082 30.5767C374.314 29.0597 373.931 27.2869 373.931 25.2585C373.931 23.2301 374.314 21.4531 375.082 19.9276C375.857 18.402 376.948 17.2173 378.354 16.3736C379.761 15.5298 381.422 15.108 383.34 15.108C385.258 15.108 386.92 15.5298 388.326 16.3736C389.732 17.2173 390.819 18.402 391.586 19.9276C392.361 21.4531 392.749 23.2301 392.749 25.2585C392.749 27.2869 392.361 29.0597 391.586 30.5767C390.819 32.0937 389.732 33.2741 388.326 34.1179C386.92 34.9616 385.258 35.3835 383.34 35.3835ZM383.366 31.6761C384.405 31.6761 385.275 31.3906 385.974 30.8196C386.672 30.2401 387.192 29.4645 387.533 28.4929C387.883 27.5213 388.057 26.4389 388.057 25.2457C388.057 24.044 387.883 22.9574 387.533 21.9858C387.192 21.0057 386.672 20.2259 385.974 19.6463C385.275 19.0668 384.405 18.777 383.366 18.777C382.3 18.777 381.414 19.0668 380.707 19.6463C380.008 20.2259 379.484 21.0057 379.134 21.9858C378.793 22.9574 378.623 24.044 378.623 25.2457C378.623 26.4389 378.793 27.5213 379.134 28.4929C379.484 29.4645 380.008 30.2401 380.707 30.8196C381.414 31.3906 382.3 31.6761 383.366 31.6761ZM395.957 35V15.3636H400.38V18.7003H400.61C401.02 17.5753 401.697 16.6974 402.643 16.0668C403.589 15.4276 404.718 15.108 406.031 15.108C407.36 15.108 408.481 15.4318 409.393 16.0795C410.314 16.7187 410.961 17.5923 411.336 18.7003H411.541C411.976 17.6094 412.708 16.7401 413.74 16.0923C414.78 15.4361 416.011 15.108 417.434 15.108C419.241 15.108 420.716 15.679 421.858 16.821C423 17.9631 423.571 19.6293 423.571 21.8196V35H418.93V22.5355C418.93 21.3168 418.606 20.4261 417.958 19.8636C417.311 19.2926 416.518 19.0071 415.581 19.0071C414.464 19.0071 413.591 19.3565 412.96 20.0554C412.338 20.7457 412.027 21.6449 412.027 22.7528V35H407.488V22.3438C407.488 21.3295 407.181 20.5199 406.568 19.9148C405.963 19.3097 405.17 19.0071 404.19 19.0071C403.525 19.0071 402.92 19.1776 402.375 19.5185C401.829 19.8509 401.395 20.3239 401.071 20.9375C400.747 21.5426 400.585 22.25 400.585 23.0597V35H395.957Z" fill="#111827"/>
<path d="M478.667 16.6665H465.333C463.861 16.6665 462.667 17.8604 462.667 19.3332V32.6665C462.667 34.1393 463.861 35.3332 465.333 35.3332H478.667C480.14 35.3332 481.333 34.1393 481.333 32.6665V19.3332C481.333 17.8604 480.14 16.6665 478.667 16.6665Z" stroke="#4B5563" stroke-width="2" stroke-linecap="round" stroke-linejoin="round"/>
<path d="M457.333 27.3332C455.867 27.3332 454.667 26.1332 454.667 24.6665V11.3332C454.667 9.8665 455.867 8.6665 457.333 8.6665H470.667C472.133 8.6665 473.333 9.8665 473.333 11.3332" stroke="#4B5563" stroke-width="2" stroke-linecap="round" stroke-linejoin="round"/>
</g>
<g clip-path="url(#clip1_316_547)">
<path d="M54.3334 88.56V92.56C54.3349 92.9313 54.2589 93.2989 54.1101 93.6391C53.9613 93.9793 53.7431 94.2848 53.4695 94.5358C53.1959 94.7868 52.8728 94.9779 52.5211 95.0969C52.1693 95.2159 51.7966 95.2601 51.4267 95.2266C47.3239 94.7808 43.3827 93.3788 39.9201 91.1333C36.6985 89.0862 33.9672 86.3549 31.9201 83.1333C29.6667 79.6549 28.2644 75.6946 27.8267 71.5733C27.7934 71.2046 27.8372 70.833 27.9554 70.4821C28.0736 70.1313 28.2635 69.8089 28.5131 69.5355C28.7627 69.262 29.0665 69.0436 29.4051 68.894C29.7438 68.7444 30.1099 68.667 30.4801 68.6666H34.4801C35.1271 68.6603 35.7545 68.8894 36.2451 69.3113C36.7357 69.7333 37.0562 70.3192 37.1467 70.96C37.3156 72.2401 37.6287 73.4969 38.0801 74.7066C38.2595 75.1839 38.2983 75.7025 38.1919 76.2011C38.0856 76.6998 37.8386 77.1574 37.4801 77.52L35.7867 79.2133C37.6848 82.5514 40.4487 85.3152 43.7867 87.2133L45.4801 85.52C45.8426 85.1615 46.3003 84.9144 46.7989 84.8081C47.2975 84.7018 47.8162 84.7406 48.2934 84.92C49.5031 85.3714 50.76 85.6845 52.0401 85.8533C52.6878 85.9447 53.2793 86.2709 53.7021 86.77C54.125 87.269 54.3496 87.9061 54.3334 88.56Z" stroke="#4B5563" stroke-width="2" stroke-linecap="round" stroke-linejoin="round"/>
<path d="M87.3047 90.8068V73.1136H91.3189V90.8068H87.3047ZM80.4653 83.9673V79.9531H98.1584V83.9673H80.4653ZM112.124 68.4602C113.377 68.4687 114.596 68.6903 115.78 69.125C116.974 69.5511 118.047 70.25 119.002 71.2216C119.957 72.1847 120.715 73.4759 121.278 75.0952C121.84 76.7145 122.121 78.7173 122.121 81.1037C122.13 83.3537 121.891 85.3651 121.405 87.1378C120.928 88.902 120.242 90.3935 119.347 91.6122C118.452 92.831 117.374 93.7599 116.113 94.3991C114.851 95.0384 113.432 95.358 111.856 95.358C110.202 95.358 108.736 95.0341 107.458 94.3864C106.188 93.7386 105.161 92.8523 104.377 91.7273C103.593 90.6023 103.111 89.3153 102.932 87.8665H107.599C107.837 88.9062 108.323 89.733 109.056 90.3466C109.797 90.9517 110.731 91.2543 111.856 91.2543C113.671 91.2543 115.069 90.4659 116.049 88.8892C117.029 87.3125 117.519 85.1222 117.519 82.3182H117.34C116.922 83.0682 116.381 83.7159 115.716 84.2614C115.052 84.7983 114.297 85.2116 113.454 85.5014C112.618 85.7912 111.732 85.9361 110.795 85.9361C109.261 85.9361 107.88 85.5696 106.653 84.8366C105.434 84.1037 104.466 83.098 103.751 81.8196C103.043 80.5412 102.685 79.0795 102.677 77.4347C102.677 75.7301 103.069 74.2003 103.853 72.8452C104.645 71.4815 105.749 70.4077 107.164 69.6236C108.579 68.831 110.232 68.4432 112.124 68.4602ZM112.137 72.2955C111.216 72.2955 110.386 72.5213 109.644 72.973C108.911 73.4162 108.332 74.0213 107.905 74.7884C107.488 75.5469 107.279 76.3949 107.279 77.3324C107.288 78.2614 107.496 79.1051 107.905 79.8636C108.323 80.6222 108.89 81.223 109.606 81.6662C110.33 82.1094 111.157 82.331 112.086 82.331C112.776 82.331 113.42 82.1989 114.016 81.9347C114.613 81.6705 115.133 81.304 115.576 80.8352C116.028 80.358 116.377 79.8168 116.624 79.2116C116.88 78.6065 117.003 77.9673 116.995 77.294C116.995 76.3991 116.782 75.5724 116.356 74.8139C115.938 74.0554 115.363 73.446 114.63 72.9858C113.905 72.5256 113.074 72.2955 112.137 72.2955ZM134.748 68.4602C136.001 68.4687 137.219 68.6903 138.404 69.125C139.597 69.5511 140.671 70.25 141.626 71.2216C142.58 72.1847 143.339 73.4759 143.901 75.0952C144.464 76.7145 144.745 78.7173 144.745 81.1037C144.754 83.3537 144.515 85.3651 144.029 87.1378C143.552 88.902 142.866 90.3935 141.971 91.6122C141.076 92.831 139.998 93.7599 138.737 94.3991C137.475 95.0384 136.056 95.358 134.479 95.358C132.826 95.358 131.36 95.0341 130.082 94.3864C128.812 93.7386 127.785 92.8523 127.001 91.7273C126.217 90.6023 125.735 89.3153 125.556 87.8665H130.222C130.461 88.9062 130.947 89.733 131.68 90.3466C132.421 90.9517 133.354 91.2543 134.479 91.2543C136.295 91.2543 137.693 90.4659 138.673 88.8892C139.653 87.3125 140.143 85.1222 140.143 82.3182H139.964C139.546 83.0682 139.005 83.7159 138.34 84.2614C137.675 84.7983 136.921 85.2116 136.077 85.5014C135.242 85.7912 134.356 85.9361 133.418 85.9361C131.884 85.9361 130.504 85.5696 129.276 84.8366C128.058 84.1037 127.09 83.098 126.374 81.8196C125.667 80.5412 125.309 79.0795 125.3 77.4347C125.3 75.7301 125.693 74.2003 126.477 72.8452C127.269 71.4815 128.373 70.4077 129.788 69.6236C131.202 68.831 132.856 68.4432 134.748 68.4602ZM134.761 72.2955C133.84 72.2955 133.009 72.5213 132.268 72.973C131.535 73.4162 130.955 74.0213 130.529 74.7884C130.112 75.5469 129.903 76.3949 129.903 77.3324C129.911 78.2614 130.12 79.1051 130.529 79.8636C130.947 80.6222 131.514 81.223 132.229 81.6662C132.954 82.1094 133.781 82.331 134.71 82.331C135.4 82.331 136.043 82.1989 136.64 81.9347C137.237 81.6705 137.756 81.304 138.2 80.8352C138.651 80.358 139.001 79.8168 139.248 79.2116C139.504 78.6065 139.627 77.9673 139.619 77.294C139.619 76.3991 139.406 75.5724 138.979 74.8139C138.562 74.0554 137.987 73.446 137.254 72.9858C136.529 72.5256 135.698 72.2955 134.761 72.2955ZM157.589 95.358C155.688 95.358 154.001 95.0384 152.526 94.3991C151.061 93.7599 149.91 92.8864 149.075 91.7784C148.248 90.6619 147.839 89.3963 147.848 87.9815C147.839 86.8821 148.078 85.8722 148.563 84.9517C149.049 84.0312 149.705 83.2642 150.532 82.6506C151.367 82.0284 152.296 81.6321 153.319 81.4616V81.2827C151.973 80.9844 150.882 80.2983 150.046 79.2244C149.22 78.142 148.811 76.8935 148.819 75.4787C148.811 74.1321 149.186 72.9304 149.944 71.8736C150.703 70.8168 151.742 69.9858 153.063 69.3807C154.384 68.767 155.893 68.4602 157.589 68.4602C159.268 68.4602 160.764 68.767 162.076 69.3807C163.397 69.9858 164.437 70.8168 165.196 71.8736C165.963 72.9304 166.346 74.1321 166.346 75.4787C166.346 76.8935 165.924 78.142 165.08 79.2244C164.245 80.2983 163.167 80.9844 161.846 81.2827V81.4616C162.869 81.6321 163.789 82.0284 164.607 82.6506C165.434 83.2642 166.09 84.0312 166.576 84.9517C167.071 85.8722 167.318 86.8821 167.318 87.9815C167.318 89.3963 166.9 90.6619 166.065 91.7784C165.23 92.8864 164.079 93.7599 162.613 94.3991C161.156 95.0384 159.481 95.358 157.589 95.358ZM157.589 91.7017C158.569 91.7017 159.421 91.5355 160.146 91.2031C160.87 90.8622 161.433 90.3849 161.833 89.7713C162.234 89.1577 162.438 88.4503 162.447 87.6491C162.438 86.8139 162.221 86.0767 161.795 85.4375C161.377 84.7898 160.802 84.2827 160.069 83.9162C159.345 83.5497 158.518 83.3665 157.589 83.3665C156.651 83.3665 155.816 83.5497 155.083 83.9162C154.35 84.2827 153.771 84.7898 153.345 85.4375C152.927 86.0767 152.723 86.8139 152.731 87.6491C152.723 88.4503 152.919 89.1577 153.319 89.7713C153.72 90.3764 154.282 90.8494 155.007 91.1903C155.74 91.5312 156.6 91.7017 157.589 91.7017ZM157.589 79.7741C158.39 79.7741 159.098 79.6122 159.711 79.2884C160.333 78.9645 160.823 78.5128 161.181 77.9332C161.539 77.3537 161.723 76.6847 161.731 75.9261C161.723 75.1761 161.544 74.5199 161.194 73.9574C160.845 73.3864 160.359 72.9474 159.737 72.6406C159.115 72.3253 158.399 72.1676 157.589 72.1676C156.762 72.1676 156.034 72.3253 155.403 72.6406C154.781 72.9474 154.295 73.3864 153.946 73.9574C153.605 74.5199 153.438 75.1761 153.447 75.9261C153.438 76.6847 153.609 77.3537 153.958 77.9332C154.316 78.5043 154.806 78.956 155.428 79.2884C156.059 79.6122 156.779 79.7741 157.589 79.7741ZM188.1 68.4602C189.352 68.4687 190.571 68.6903 191.756 69.125C192.949 69.5511 194.023 70.25 194.977 71.2216C195.932 72.1847 196.691 73.4759 197.253 75.0952C197.816 76.7145 198.097 78.7173 198.097 81.1037C198.105 83.3537 197.867 85.3651 197.381 87.1378C196.904 88.902 196.218 90.3935 195.323 91.6122C194.428 92.831 193.35 93.7599 192.088 94.3991C190.827 95.0384 189.408 95.358 187.831 95.358C186.178 95.358 184.712 95.0341 183.433 94.3864C182.164 93.7386 181.137 92.8523 180.352 91.7273C179.568 90.6023 179.087 89.3153 178.908 87.8665H183.574C183.813 88.9062 184.298 89.733 185.031 90.3466C185.773 90.9517 186.706 91.2543 187.831 91.2543C189.647 91.2543 191.044 90.4659 192.024 88.8892C193.004 87.3125 193.495 85.1222 193.495 82.3182H193.316C192.898 83.0682 192.357 83.7159 191.692 84.2614C191.027 84.7983 190.273 85.2116 189.429 85.5014C188.594 85.7912 187.708 85.9361 186.77 85.9361C185.236 85.9361 183.855 85.5696 182.628 84.8366C181.409 84.1037 180.442 83.098 179.726 81.8196C179.019 80.5412 178.661 79.0795 178.652 77.4347C178.652 75.7301 179.044 74.2003 179.828 72.8452C180.621 71.4815 181.725 70.4077 183.139 69.6236C184.554 68.831 186.208 68.4432 188.1 68.4602ZM188.112 72.2955C187.192 72.2955 186.361 72.5213 185.62 72.973C184.887 73.4162 184.307 74.0213 183.881 74.7884C183.463 75.5469 183.254 76.3949 183.254 77.3324C183.263 78.2614 183.472 79.1051 183.881 79.8636C184.298 80.6222 184.865 81.223 185.581 81.6662C186.306 82.1094 187.132 82.331 188.061 82.331C188.752 82.331 189.395 82.1989 189.992 81.9347C190.588 81.6705 191.108 81.304 191.551 80.8352C192.003 80.358 192.352 79.8168 192.6 79.2116C192.855 78.6065 192.979 77.9673 192.97 77.294C192.97 76.3991 192.757 75.5724 192.331 74.8139C191.914 74.0554 191.338 73.446 190.605 72.9858C189.881 72.5256 189.05 72.2955 188.112 72.2955ZM210.723 68.4602C211.976 68.4687 213.195 68.6903 214.38 69.125C215.573 69.5511 216.647 70.25 217.601 71.2216C218.556 72.1847 219.314 73.4759 219.877 75.0952C220.439 76.7145 220.721 78.7173 220.721 81.1037C220.729 83.3537 220.49 85.3651 220.005 87.1378C219.527 88.902 218.841 90.3935 217.946 91.6122C217.052 92.831 215.973 93.7599 214.712 94.3991C213.451 95.0384 212.032 95.358 210.455 95.358C208.802 95.358 207.336 95.0341 206.057 94.3864C204.787 93.7386 203.76 92.8523 202.976 91.7273C202.192 90.6023 201.711 89.3153 201.532 87.8665H206.198C206.436 88.9062 206.922 89.733 207.655 90.3466C208.397 90.9517 209.33 91.2543 210.455 91.2543C212.27 91.2543 213.668 90.4659 214.648 88.8892C215.628 87.3125 216.118 85.1222 216.118 82.3182H215.939C215.522 83.0682 214.98 83.7159 214.316 84.2614C213.651 84.7983 212.897 85.2116 212.053 85.5014C211.218 85.7912 210.331 85.9361 209.394 85.9361C207.86 85.9361 206.479 85.5696 205.252 84.8366C204.033 84.1037 203.066 83.098 202.35 81.8196C201.642 80.5412 201.284 79.0795 201.276 77.4347C201.276 75.7301 201.668 74.2003 202.452 72.8452C203.245 71.4815 204.348 70.4077 205.763 69.6236C207.178 68.831 208.831 68.4432 210.723 68.4602ZM210.736 72.2955C209.816 72.2955 208.985 72.5213 208.243 72.973C207.51 73.4162 206.931 74.0213 206.505 74.7884C206.087 75.5469 205.878 76.3949 205.878 77.3324C205.887 78.2614 206.096 79.1051 206.505 79.8636C206.922 80.6222 207.489 81.223 208.205 81.6662C208.929 82.1094 209.756 82.331 210.685 82.331C211.375 82.331 212.019 82.1989 212.615 81.9347C213.212 81.6705 213.732 81.304 214.175 80.8352C214.627 80.358 214.976 79.8168 215.223 79.2116C215.479 78.6065 215.603 77.9673 215.594 77.294C215.594 76.3991 215.381 75.5724 214.955 74.8139C214.537 74.0554 213.962 73.446 213.229 72.9858C212.505 72.5256 211.674 72.2955 210.736 72.2955ZM242.145 95.4986C240.04 95.4986 238.233 94.9659 236.724 93.9006C235.224 92.8267 234.07 91.2798 233.26 89.2599C232.459 87.2315 232.058 84.7898 232.058 81.9347C232.067 79.0795 232.472 76.6506 233.273 74.6477C234.082 72.6364 235.237 71.1023 236.737 70.0455C238.246 68.9886 240.048 68.4602 242.145 68.4602C244.241 68.4602 246.044 68.9886 247.553 70.0455C249.061 71.1023 250.216 72.6364 251.017 74.6477C251.827 76.6591 252.232 79.0881 252.232 81.9347C252.232 84.7983 251.827 87.2443 251.017 89.2727C250.216 91.2926 249.061 92.8352 247.553 93.9006C246.053 94.9659 244.25 95.4986 242.145 95.4986ZM242.145 91.4972C243.781 91.4972 245.072 90.6918 246.018 89.081C246.973 87.4616 247.45 85.0795 247.45 81.9347C247.45 79.8551 247.233 78.108 246.798 76.6932C246.364 75.2784 245.75 74.2131 244.957 73.4972C244.165 72.7727 243.227 72.4105 242.145 72.4105C240.517 72.4105 239.23 73.2202 238.284 74.8395C237.338 76.4503 236.861 78.8153 236.852 81.9347C236.844 84.0227 237.053 85.7784 237.479 87.2017C237.913 88.625 238.527 89.6989 239.32 90.4233C240.112 91.1392 241.054 91.4972 242.145 91.4972ZM266.408 68.8182V95H261.665V73.4332H261.512L255.388 77.3452V72.9986L261.895 68.8182H266.408ZM271.863 90.142V86.3707L282.972 68.8182H286.117V74.1875H284.2L276.721 86.0384V86.2429H292.228V90.142H271.863ZM284.353 95V88.9915L284.404 87.304V68.8182H288.879V95H284.353ZM312.892 68.4602C314.144 68.4687 315.363 68.6903 316.548 69.125C317.741 69.5511 318.815 70.25 319.769 71.2216C320.724 72.1847 321.483 73.4759 322.045 75.0952C322.608 76.7145 322.889 78.7173 322.889 81.1037C322.897 83.3537 322.659 85.3651 322.173 87.1378C321.696 88.902 321.01 90.3935 320.115 91.6122C319.22 92.831 318.142 93.7599 316.88 94.3991C315.619 95.0384 314.2 95.358 312.623 95.358C310.97 95.358 309.504 95.0341 308.225 94.3864C306.956 93.7386 305.929 92.8523 305.144 91.7273C304.36 90.6023 303.879 89.3153 303.7 87.8665H308.366C308.605 88.9062 309.091 89.733 309.823 90.3466C310.565 90.9517 311.498 91.2543 312.623 91.2543C314.439 91.2543 315.836 90.4659 316.816 88.8892C317.796 87.3125 318.287 85.1222 318.287 82.3182H318.108C317.69 83.0682 317.149 83.7159 316.484 84.2614C315.819 84.7983 315.065 85.2116 314.221 85.5014C313.386 85.7912 312.5 85.9361 311.562 85.9361C310.028 85.9361 308.647 85.5696 307.42 84.8366C306.201 84.1037 305.234 83.098 304.518 81.8196C303.811 80.5412 303.453 79.0795 303.444 77.4347C303.444 75.7301 303.836 74.2003 304.62 72.8452C305.413 71.4815 306.517 70.4077 307.931 69.6236C309.346 68.831 311 68.4432 312.892 68.4602ZM312.904 72.2955C311.984 72.2955 311.153 72.5213 310.412 72.973C309.679 73.4162 309.099 74.0213 308.673 74.7884C308.255 75.5469 308.046 76.3949 308.046 77.3324C308.055 78.2614 308.264 79.1051 308.673 79.8636C309.091 80.6222 309.657 81.223 310.373 81.6662C311.098 82.1094 311.924 82.331 312.853 82.331C313.544 82.331 314.187 82.1989 314.784 81.9347C315.38 81.6705 315.9 81.304 316.343 80.8352C316.795 80.358 317.144 79.8168 317.392 79.2116C317.647 78.6065 317.771 77.9673 317.762 77.294C317.762 76.3991 317.549 75.5724 317.123 74.8139C316.706 74.0554 316.13 73.446 315.397 72.9858C314.673 72.5256 313.842 72.2955 312.904 72.2955ZM335.515 68.4602C336.768 68.4687 337.987 68.6903 339.172 69.125C340.365 69.5511 341.439 70.25 342.393 71.2216C343.348 72.1847 344.106 73.4759 344.669 75.0952C345.231 76.7145 345.513 78.7173 345.513 81.1037C345.521 83.3537 345.282 85.3651 344.797 87.1378C344.319 88.902 343.633 90.3935 342.738 91.6122C341.844 92.831 340.765 93.7599 339.504 94.3991C338.243 95.0384 336.824 95.358 335.247 95.358C333.594 95.358 332.128 95.0341 330.849 94.3864C329.579 93.7386 328.552 92.8523 327.768 91.7273C326.984 90.6023 326.503 89.3153 326.324 87.8665H330.99C331.228 88.9062 331.714 89.733 332.447 90.3466C333.189 90.9517 334.122 91.2543 335.247 91.2543C337.062 91.2543 338.46 90.4659 339.44 88.8892C340.42 87.3125 340.91 85.1222 340.91 82.3182H340.731C340.314 83.0682 339.773 83.7159 339.108 84.2614C338.443 84.7983 337.689 85.2116 336.845 85.5014C336.01 85.7912 335.123 85.9361 334.186 85.9361C332.652 85.9361 331.271 85.5696 330.044 84.8366C328.825 84.1037 327.858 83.098 327.142 81.8196C326.434 80.5412 326.076 79.0795 326.068 77.4347C326.068 75.7301 326.46 74.2003 327.244 72.8452C328.037 71.4815 329.14 70.4077 330.555 69.6236C331.97 68.831 333.623 68.4432 335.515 68.4602ZM335.528 72.2955C334.608 72.2955 333.777 72.5213 333.035 72.973C332.302 73.4162 331.723 74.0213 331.297 74.7884C330.879 75.5469 330.67 76.3949 330.67 77.3324C330.679 78.2614 330.888 79.1051 331.297 79.8636C331.714 80.6222 332.281 81.223 332.997 81.6662C333.721 82.1094 334.548 82.331 335.477 82.331C336.167 82.331 336.811 82.1989 337.407 81.9347C338.004 81.6705 338.524 81.304 338.967 80.8352C339.419 80.358 339.768 79.8168 340.015 79.2116C340.271 78.6065 340.395 77.9673 340.386 77.294C340.386 76.3991 340.173 75.5724 339.747 74.8139C339.329 74.0554 338.754 73.446 338.021 72.9858C337.297 72.5256 336.466 72.2955 335.528 72.2955ZM366.349 68.4602C367.602 68.4687 368.82 68.6903 370.005 69.125C371.198 69.5511 372.272 70.25 373.227 71.2216C374.181 72.1847 374.94 73.4759 375.502 75.0952C376.065 76.7145 376.346 78.7173 376.346 81.1037C376.355 83.3537 376.116 85.3651 375.63 87.1378C375.153 88.902 374.467 90.3935 373.572 91.6122C372.677 92.831 371.599 93.7599 370.338 94.3991C369.076 95.0384 367.657 95.358 366.08 95.358C364.427 95.358 362.961 95.0341 361.683 94.3864C360.413 93.7386 359.386 92.8523 358.602 91.7273C357.818 90.6023 357.336 89.3153 357.157 87.8665H361.823C362.062 88.9062 362.548 89.733 363.281 90.3466C364.022 90.9517 364.955 91.2543 366.08 91.2543C367.896 91.2543 369.293 90.4659 370.274 88.8892C371.254 87.3125 371.744 85.1222 371.744 82.3182H371.565C371.147 83.0682 370.606 83.7159 369.941 84.2614C369.276 84.7983 368.522 85.2116 367.678 85.5014C366.843 85.7912 365.957 85.9361 365.019 85.9361C363.485 85.9361 362.105 85.5696 360.877 84.8366C359.659 84.1037 358.691 83.098 357.975 81.8196C357.268 80.5412 356.91 79.0795 356.901 77.4347C356.901 75.7301 357.293 74.2003 358.078 72.8452C358.87 71.4815 359.974 70.4077 361.389 69.6236C362.803 68.831 364.457 68.4432 366.349 68.4602ZM366.362 72.2955C365.441 72.2955 364.61 72.5213 363.869 72.973C363.136 73.4162 362.556 74.0213 362.13 74.7884C361.713 75.5469 361.504 76.3949 361.504 77.3324C361.512 78.2614 361.721 79.1051 362.13 79.8636C362.548 80.6222 363.114 81.223 363.83 81.6662C364.555 82.1094 365.382 82.331 366.311 82.331C367.001 82.331 367.644 82.1989 368.241 81.9347C368.838 81.6705 369.357 81.304 369.801 80.8352C370.252 80.358 370.602 79.8168 370.849 79.2116C371.105 78.6065 371.228 77.9673 371.22 77.294C371.22 76.3991 371.007 75.5724 370.58 74.8139C370.163 74.0554 369.588 73.446 368.855 72.9858C368.13 72.5256 367.299 72.2955 366.362 72.2955ZM389.19 95.358C387.289 95.358 385.602 95.0384 384.127 94.3991C382.662 93.7599 381.511 92.8864 380.676 91.7784C379.849 90.6619 379.44 89.3963 379.448 87.9815C379.44 86.8821 379.679 85.8722 380.164 84.9517C380.65 84.0312 381.306 83.2642 382.133 82.6506C382.968 82.0284 383.897 81.6321 384.92 81.4616V81.2827C383.573 80.9844 382.483 80.2983 381.647 79.2244C380.821 78.142 380.412 76.8935 380.42 75.4787C380.412 74.1321 380.787 72.9304 381.545 71.8736C382.304 70.8168 383.343 69.9858 384.664 69.3807C385.985 68.767 387.494 68.4602 389.19 68.4602C390.869 68.4602 392.365 68.767 393.677 69.3807C394.998 69.9858 396.038 70.8168 396.796 71.8736C397.563 72.9304 397.947 74.1321 397.947 75.4787C397.947 76.8935 397.525 78.142 396.681 79.2244C395.846 80.2983 394.768 80.9844 393.447 81.2827V81.4616C394.47 81.6321 395.39 82.0284 396.208 82.6506C397.035 83.2642 397.691 84.0312 398.177 84.9517C398.671 85.8722 398.919 86.8821 398.919 87.9815C398.919 89.3963 398.501 90.6619 397.666 91.7784C396.831 92.8864 395.68 93.7599 394.214 94.3991C392.757 95.0384 391.082 95.358 389.19 95.358ZM389.19 91.7017C390.17 91.7017 391.022 91.5355 391.747 91.2031C392.471 90.8622 393.034 90.3849 393.434 89.7713C393.835 89.1577 394.039 88.4503 394.048 87.6491C394.039 86.8139 393.822 86.0767 393.396 85.4375C392.978 84.7898 392.403 84.2827 391.67 83.9162C390.946 83.5497 390.119 83.3665 389.19 83.3665C388.252 83.3665 387.417 83.5497 386.684 83.9162C385.951 84.2827 385.372 84.7898 384.946 85.4375C384.528 86.0767 384.323 86.8139 384.332 87.6491C384.323 88.4503 384.519 89.1577 384.92 89.7713C385.321 90.3764 385.883 90.8494 386.608 91.1903C387.34 91.5312 388.201 91.7017 389.19 91.7017ZM389.19 79.7741C389.991 79.7741 390.698 79.6122 391.312 79.2884C391.934 78.9645 392.424 78.5128 392.782 77.9332C393.14 77.3537 393.323 76.6847 393.332 75.9261C393.323 75.1761 393.144 74.5199 392.795 73.9574C392.446 73.3864 391.96 72.9474 391.338 72.6406C390.715 72.3253 390 72.1676 389.19 72.1676C388.363 72.1676 387.635 72.3253 387.004 72.6406C386.382 72.9474 385.896 73.3864 385.546 73.9574C385.206 74.5199 385.039 75.1761 385.048 75.9261C385.039 76.6847 385.21 77.3537 385.559 77.9332C385.917 78.5043 386.407 78.956 387.029 79.2884C387.66 79.6122 388.38 79.7741 389.19 79.7741Z" fill="#111827"/>
<path d="M453.667 76.6665H440.333C438.861 76.6665 437.667 77.8604 437.667 79.3332V92.6665C437.667 94.1393 438.861 95.3332 440.333 95.3332H453.667C455.14 95.3332 456.333 94.1393 456.333 92.6665V79.3332C456.333 77.8604 455.14 76.6665 453.667 76.6665Z" stroke="#4B5563" stroke-width="2" stroke-linecap="round" stroke-linejoin="round"/>
<path d="M432.333 87.3332C430.867 87.3332 429.667 86.1332 429.667 84.6665V71.3332C429.667 69.8665 430.867 68.6665 432.333 68.6665H445.667C447.133 68.6665 448.333 69.8665 448.333 71.3332" stroke="#4B5563" stroke-width="2" stroke-linecap="round" stroke-linejoin="round"/>
</g>
<defs>
<clipPath id="clip0_316_547">
<rect width="490" height="44" fill="white"/>
</clipPath>
<clipPath id="clip1_316_547">
<rect width="440" height="44" fill="white" transform="translate(25 60)"/>
</clipPath>
</defs>
</svg>
